<?xml version="1.0" encoding="UTF-8" standalone="no" ?>
<!DOCTYPE svg PUBLIC "-//W3C//DTD SVG 1.1//EN" "http://www.w3.org/Graphics/SVG/1.1/DTD/svg11.dtd">
<svg xmlns="http://www.w3.org/2000/svg" xmlns:xlink="http://www.w3.org/1999/xlink" version="1.1" width="500" height="500" viewBox="0 0 500 500" xml:space="preserve">
<desc>Created with Fabric.js 4.6.0</desc>
<defs>
</defs>
<g transform="matrix(2.03 0 0 2 252.77 255.26)" id="yQ2anzBB-FocBMKLLzyMs"  >
<path style="stroke: rgb(87,225,85); stroke-width: 0; stroke-dasharray: none; stroke-linecap: butt; stroke-dashoffset: 0; stroke-linejoin: miter; stroke-miterlimit: 4; fill: rgb(100,37,89); fill-rule: nonzero; opacity: 1;" vector-effect="non-scaling-stroke"  transform=" translate(0, 0)" d="M 0 -119.33657 C 65.87379 -119.33657 119.33657 -65.87378999999999 119.33657 0 C 119.33657 65.87379 65.87378999999999 119.33657 0 119.33657 C -65.87379 119.33657 -119.33657 65.87378999999999 -119.33657 0 C -119.33657 -65.87379 -65.87378999999999 -119.33657 0 -119.33657 z" stroke-linecap="round" />
</g>
<g transform="matrix(1 0 0 1 111.24 141.59)" id="2cn4lC4edtOEF4a-Wia4t"  >
<path style="stroke: rgb(0,0,0); stroke-width: 1; stroke-dasharray: none; stroke-linecap: butt; stroke-dashoffset: 0; stroke-linejoin: miter; stroke-miterlimit: 4; fill: rgb(255,255,255); fill-opacity: 0; fill-rule: nonzero; opacity: 1;" vector-effect="non-scaling-stroke"  transform=" translate(0, 0)" d="M 0 0" stroke-linecap="round" />
</g>
<g transform="matrix(1.41 0 0 1.41 88.01 153.16)" id="uwesYcM-9FIxI7Vbjmski"  >
<path style="stroke: rgb(0,0,0); stroke-width: 20; stroke-dasharray: none; stroke-linecap: butt; stroke-dashoffset: 0; stroke-linejoin: miter; stroke-miterlimit: 4; fill: rgb(255,255,255); fill-opacity: 0; fill-rule: nonzero; opacity: 1;" vector-effect="non-scaling-stroke"  transform=" translate(0, 0)" d="M -14.96764 29.93528 L 14.96764 -29.935270000000003" stroke-linecap="round" />
</g>
<g transform="matrix(1.29 0 0 1 141.22 148.87)" id="R2DMfDvjT926IuC9dWHBG"  >
<path style="stroke: rgb(0,0,0); stroke-width: 20; stroke-dasharray: none; stroke-linecap: butt; stroke-dashoffset: 0; stroke-linejoin: miter; stroke-miterlimit: 4; fill: rgb(255,255,255); fill-opacity: 0; fill-rule: nonzero; opacity: 1;" vector-effect="non-scaling-stroke"  transform=" translate(0, 0)" d="M -36.2055 0 L 36.2055 0" stroke-linecap="round" />
</g>
<g transform="matrix(1.26 0 0 1.26 172.76 171.54)" id="cIt289MKmahOPkPSVJvIs"  >
<path style="stroke: rgb(0,0,0); stroke-width: 20; stroke-dasharray: none; stroke-linecap: butt; stroke-dashoffset: 0; stroke-linejoin: miter; stroke-miterlimit: 4; fill: rgb(255,255,255); fill-opacity: 0; fill-rule: nonzero; opacity: 1;" vector-effect="non-scaling-stroke"  transform=" translate(0, 0)" d="M 15.27104 -26.2945 L -15.27103 26.2945 z" stroke-linecap="round" />
</g>
<g transform="matrix(1 0 0 1 157.82 255.77)" id="49IgkZWn7vZX9GlHuvqaH"  >
<path style="stroke: rgb(0,0,0); stroke-width: 20; stroke-dasharray: none; stroke-linecap: butt; stroke-dashoffset: 0; stroke-linejoin: miter; stroke-miterlimit: 4; fill: rgb(255,255,255); fill-opacity: 0; fill-rule: nonzero; opacity: 1;" vector-effect="non-scaling-stroke"  transform=" translate(-65.48, -45.72)" d="M 0 0 L 130.95469 0 L 130.95469 91.4479 L 0 91.4479 z" stroke-linecap="round" />
</g>
<g transform="matrix(1 0 0 1 157.82 254.45)" id="YoXsNgJvymzGSLZuOFBKZ"  >
<path style="stroke: rgb(0,0,0); stroke-width: 20; stroke-dasharray: none; stroke-linecap: butt; stroke-dashoffset: 0; stroke-linejoin: miter; stroke-miterlimit: 4; fill: rgb(255,255,255); fill-opacity: 0; fill-rule: nonzero; opacity: 1;" vector-effect="non-scaling-stroke"  transform=" translate(0, 0)" d="M 0 -45.71197 L 0 45.711980000000004" stroke-linecap="round" />
</g>
<g transform="matrix(1 0 0 1 158.37 255.11)" id="bVQuEJLPWWul9YrrGdyij"  >
<path style="stroke: rgb(0,0,0); stroke-width: 20; stroke-dasharray: none; stroke-linecap: butt; stroke-dashoffset: 0; stroke-linejoin: miter; stroke-miterlimit: 4; fill: rgb(255,255,255); fill-opacity: 0; fill-rule: nonzero; opacity: 1;" vector-effect="non-scaling-stroke"  transform=" translate(0, 0)" d="M -62.5 0.65744 L 62.5 -0.65744" stroke-linecap="round" />
</g>
<g transform="matrix(1.32 0 0 1.32 90.3 368.15)" id="1fknazRc9sWW27dHuczGO"  >
<path style="stroke: rgb(0,0,0); stroke-width: 20; stroke-dasharray: none; stroke-linecap: butt; stroke-dashoffset: 0; stroke-linejoin: miter; stroke-miterlimit: 4; fill: rgb(255,255,255); fill-opacity: 0; fill-rule: nonzero; opacity: 1;" vector-effect="non-scaling-stroke"  transform=" translate(0, 0)" d="M 11.61907 -28.31715 L -11.61907 28.31715" stroke-linecap="round" />
</g>
<g transform="matrix(1.19 0.1 -0.1 1.19 145.67 368.45)" id="MQDRErkEGDdPGCx16LFfb"  >
<path style="stroke: rgb(0,0,0); stroke-width: 20; stroke-dasharray: none; stroke-linecap: butt; stroke-dashoffset: 0; stroke-linejoin: miter; stroke-miterlimit: 4; fill: rgb(255,255,255); fill-opacity: 0; fill-rule: nonzero; opacity: 1;" vector-effect="non-scaling-stroke"  transform=" translate(0, 0)" d="M -13.57915 -25.88997 L 13.57915 25.88997" stroke-linecap="round" />
</g>
<g transform="matrix(0.93 0.08 -0.08 0.93 183.9 356.85)" id="ux4pIbe7iF8Z5a9y7dSyq"  >
<path style="stroke: rgb(0,0,0); stroke-width: 20; stroke-dasharray: none; stroke-linecap: butt; stroke-dashoffset: 0; stroke-linejoin: miter; stroke-miterlimit: 4; fill: rgb(255,255,255); fill-opacity: 0; fill-rule: nonzero; opacity: 1;" vector-effect="non-scaling-stroke"  transform=" translate(0, 0)" d="M -13.57915 -25.88997 L 13.57915 25.88997" stroke-linecap="round" />
</g>
<g transform="matrix(0.77 0 0 0.77 220.6 343.51)" id="KpNW_S1w2SMFynDK4E1EL"  >
<path style="stroke: rgb(0,0,0); stroke-width: 20; stroke-dasharray: none; stroke-linecap: butt; stroke-dashoffset: 0; stroke-linejoin: miter; stroke-miterlimit: 4; fill: rgb(255,255,255); fill-opacity: 0; fill-rule: nonzero; opacity: 1;" vector-effect="non-scaling-stroke"  transform=" translate(0, 0)" d="M -13.57915 -25.88997 L 13.57915 25.88997" stroke-linecap="round" />
</g>
<g transform="matrix(1 0 0 1.45 342.63 138.26)" id="gX1ct43NmQAtsR0Mclyl_"  >
<path style="stroke: rgb(0,0,0); stroke-width: 20; stroke-dasharray: none; stroke-linecap: butt; stroke-dashoffset: 0; stroke-linejoin: miter; stroke-miterlimit: 4; fill: rgb(255,255,255); fill-opacity: 0; fill-rule: nonzero; opacity: 1;" vector-effect="non-scaling-stroke"  transform=" translate(0, 0)" d="M 0 -18.04686 L 0 18.046870000000002" stroke-linecap="round" />
</g>
<g transform="matrix(1.01 0 0 1 345.28 158.87)" id="mWRTQ4Zbkx-xZ7JsxY0hj"  >
<path style="stroke: rgb(0,0,0); stroke-width: 20; stroke-dasharray: none; stroke-linecap: butt; stroke-dashoffset: 0; stroke-linejoin: miter; stroke-miterlimit: 4; fill: rgb(255,255,255); fill-opacity: 0; fill-rule: nonzero; opacity: 1;" vector-effect="non-scaling-stroke"  transform=" translate(0, 0)" d="M -95.87379 0 L 95.87378 0" stroke-linecap="round" />
</g>
<g transform="matrix(1.41 0.15 -0.15 1.41 285.61 212.93)" id="huScLoLFt7Wvs5gQPWyOw"  >
<path style="stroke: rgb(0,0,0); stroke-width: 20; stroke-dasharray: none; stroke-linecap: butt; stroke-dashoffset: 0; stroke-linejoin: miter; stroke-miterlimit: 4; fill: rgb(255,255,255); fill-opacity: 0; fill-rule: nonzero; opacity: 1;" vector-effect="non-scaling-stroke"  transform=" translate(0, 0)" d="M 13.34951 -20.22654 L -13.34952 20.226529999999997" stroke-linecap="round" />
</g>
<g transform="matrix(-1.41 0.15 0.15 1.41 409.59 213.57)" id="Ztf_SsK_p1W1X7ha50VY9"  >
<path style="stroke: rgb(0,0,0); stroke-width: 20; stroke-dasharray: none; stroke-linecap: butt; stroke-dashoffset: 0; stroke-linejoin: miter; stroke-miterlimit: 4; fill: rgb(255,255,255); fill-opacity: 0; fill-rule: nonzero; opacity: 1;" vector-effect="non-scaling-stroke"  transform=" translate(0, 0)" d="M 13.34951 -20.22654 L -13.34952 20.226529999999997" stroke-linecap="round" />
</g>
<g transform="matrix(1.53 0 0 1.53 310.91 314.19)" id="7zj4CgQ46KpwNXfED0eex"  >
<path style="stroke: rgb(0,0,0); stroke-width: 20; stroke-dasharray: none; stroke-linecap: butt; stroke-dashoffset: 0; stroke-linejoin: miter; stroke-miterlimit: 4; fill: rgb(255,255,255); fill-opacity: 0; fill-rule: nonzero; opacity: 1;" vector-effect="non-scaling-stroke"  transform=" translate(0, 0)" d="M 51.16467 -48.54369 C 51.16467 -48.54369 37.62758 -16.990289999999998 8.501359999999998 4.854370000000003 C -20.624850000000002 26.699030000000004 -51.164680000000004 48.543690000000005 -51.164680000000004 48.543690000000005" stroke-linecap="round" />
</g>
<g transform="matrix(-1.51 0 0 1.51 375.09 313.61)" id="rz9WGv7lSDW1psf3NpKhz"  >
<path style="stroke: rgb(0,0,0); stroke-width: 20; stroke-dasharray: none; stroke-linecap: butt; stroke-dashoffset: 0; stroke-linejoin: miter; stroke-miterlimit: 4; fill: rgb(255,255,255); fill-opacity: 0; fill-rule: nonzero; opacity: 1;" vector-effect="non-scaling-stroke"  transform=" translate(0, 0)" d="M 51.16467 -48.54369 C 51.16467 -48.54369 37.62758 -16.990289999999998 8.501359999999998 4.854370000000003 C -20.624850000000002 26.699030000000004 -51.164680000000004 48.543690000000005 -51.164680000000004 48.543690000000005" stroke-linecap="round" />
</g>
</svg>